# File created by Blade
# Date/Time:  Wed Jan 21 14:37:25 2015
#---------------------------------------------------------
:version 1.10
:name HOM
:units
  mass 1.0
  length 1.000000
  angle deg
:documentation
     Acclaim Skeleton File
:root
   axis xyz
   order TX TY TZ RX RY RZ
   position 0.000000 0.000000 0.000000
   orientation 0 0 0
:bonedata
   begin
      id 1
      name Spine_dum
      direction 0.000000 1.000000 0.000000
      length 7.067664
      axis 0.0 0.0 0.0 xyz
   end
   begin
      id 2
      name LeftUpLeg_dum
      direction 1.000000 0.000000 0.000000
      length 4.013002
      axis 0.0 0.0 0.0 xyz
   end
   begin
      id 3
      name RightUpLeg_dum
      direction -1.000000 0.000000 0.000000
      length 4.013002
      axis 0.0 0.0 0.0 xyz
   end
   begin
      id 4
      name Spine
      direction 0.000000 1.000000 0.000000
      length 0.000000
      axis 0.0 0.0 0.0 xyz
      dof rx ry rz
   end
   begin
      id 5
      name Spine_dum1
      direction 0.000000 1.000000 0.000000
      length 15.039886
      axis 0.0 0.0 0.0 xyz
   end
   begin
      id 6
      name Spine_dum2
      direction 0.000000 1.000000 0.000000
      length 10.530368
      axis 0.0 0.0 0.0 xyz
   end
   begin
      id 7
      name Spine_dum3
      direction 0.000000 1.000000 0.000000
      length 10.530368
      axis 0.0 0.0 0.0 xyz
   end
   begin
      id 8
      name Head
      direction 0.000000 1.000000 0.000000
      length 4.527550
      axis 0.0 0.0 0.0 xyz
      dof rx ry rz
   end
   begin
      id 9
      name LeftShoulder
      direction 1.000000 0.000000 0.000000
      length 7.028855
      axis 0.0 0.0 -90.0 xyz
      dof rx ry rz
   end
   begin
      id 10
      name LeftArm
      direction 1.000000 0.000000 0.000000
      length 10.797705
      axis 0.0 0.0 -90.0 xyz
      dof rx ry rz
   end
   begin
      id 11
      name LeftForeArm
      direction 1.000000 0.000000 0.000000
      length 7.907442
      axis 0.0 0.0 -90.0 xyz
      dof ry rz rx
   end
   begin
      id 12
      name LeftHand
      direction 0.000000 0.000000 0.000000
      length 0.000000
      axis 0.0 0.0 -90.0 xyz
      dof rx ry rz
   end
   begin
      id 13
      name LeftHand_dum1
      direction 0.000000 0.000000 0.000000
      length 0.000000
      axis 0.0 0.0 -90.0 xyz
   end
   begin
      id 14
      name LeftHand_dum2
      direction 1.000000 0.000000 0.000000
      length 3.937000
      axis 0.0 0.0 -90.0 xyz
   end
   begin
      id 15
      name LeftHandThumb1
      direction 0.000000 0.000000 1.000000
      length 3.937000
      axis 0.0 0.0 -90.0 xyz
      dof rx rz ry
   end
   begin
      id 16
      name RightShoulder
      direction -1.000000 0.000000 0.000000
      length 7.028855
      axis 0.0 0.0 90.0 xyz
      dof rx ry rz
   end
   begin
      id 17
      name RightArm
      direction -1.000000 0.000000 0.000000
      length 10.797705
      axis 0.0 0.0 90.0 xyz
      dof rx ry rz
   end
   begin
      id 18
      name RightForeArm
      direction -1.000000 0.000000 0.000000
      length 7.907442
      axis 0.0 0.0 90.0 xyz
      dof ry rz rx
   end
   begin
      id 19
      name RightHand
      direction 0.000000 0.000000 0.000000
      length 0.000000
      axis 0.0 0.0 90.0 xyz
      dof rx ry rz
   end
   begin
      id 20
      name RightHand_dum1
      direction 0.000000 0.000000 0.000000
      length 0.000000
      axis 0.0 0.0 90.0 xyz
   end
   begin
      id 21
      name RightHand_dum2
      direction -1.000000 0.000000 0.000000
      length 3.937000
      axis 0.0 0.0 90.0 xyz
   end
   begin
      id 22
      name RightHandThumb1
      direction 0.000000 0.000000 1.000000
      length 3.937000
      axis 0.0 0.0 90.0 xyz
      dof rx rz ry
   end
   begin
      id 23
      name LeftUpLeg
      direction 0.000000 -1.000000 0.000000
      length 16.899758
      axis 0.0 0.0 0.0 xyz
      dof rx ry rz
   end
   begin
      id 24
      name LeftLeg
      direction 0.000000 -1.000000 0.000000
      length 17.389183
      axis 0.0 0.0 0.0 xyz
      dof rx ry rz
   end
   begin
      id 25
      name LeftFoot
      direction 0.000000 -0.258819 0.965926
      length 4.924528
      axis 15.0 0.0 0.0 xyz
      dof rx ry rz
   end
   begin
      id 26
      name LeftToeBase
      direction 0.000000 0.000000 1.000000
      length 2.952750
      axis 0.0 0.0 0.0 xyz
      dof rx ry rz
   end
   begin
      id 27
      name RightUpLeg
      direction 0.000000 -1.000000 0.000000
      length 16.899758
      axis 0.0 0.0 0.0 xyz
      dof rx ry rz
   end
   begin
      id 28
      name RightLeg
      direction 0.000000 -1.000000 0.000000
      length 17.389183
      axis 0.0 0.0 0.0 xyz
      dof rx ry rz
   end
   begin
      id 29
      name RightFoot
      direction 0.000000 -0.258819 0.965926
      length 4.924528
      axis 15.0 0.0 0.0 xyz
      dof rx ry rz
   end
   begin
      id 30
      name RightToeBase
      direction 0.000000 0.000000 1.000000
      length 2.952750
      axis 0.0 0.0 0.0 xyz
      dof rx ry rz
   end
:hierarchy
   begin
      root Spine_dum LeftUpLeg_dum RightUpLeg_dum
      Spine_dum Spine
      LeftUpLeg_dum LeftUpLeg
      RightUpLeg_dum RightUpLeg
      Spine Spine_dum1 Spine_dum2 Spine_dum3
      Spine_dum1 Head
      Spine_dum2 LeftShoulder
      Spine_dum3 RightShoulder
      LeftShoulder LeftArm
      LeftArm LeftForeArm
      LeftForeArm LeftHand
      LeftHand LeftHand_dum1 LeftHand_dum2
      LeftHand_dum1 LeftHandThumb1
      RightShoulder RightArm
      RightArm RightForeArm
      RightForeArm RightHand
      RightHand RightHand_dum1 RightHand_dum2
      RightHand_dum1 RightHandThumb1
      LeftUpLeg LeftLeg
      LeftLeg LeftFoot
      LeftFoot LeftToeBase
      RightUpLeg RightLeg
      RightLeg RightFoot
      RightFoot RightToeBase
   end

# File created by Blade
# Date/Time:  Wed Jan 21 14:37:15 2015
# Frame Rate: 120.000 fps
#------------------------------------------------------
:FULLY-SPECIFIED
:DEGREES
1
root 18.502120 35.481991 -21.942499 -171.237794 -2.289596 -178.778066
Spine -18.265906 -1.033938 1.126111
Head 6.920117 -1.470933 1.797889
LeftShoulder -14.317619 -36.343913 25.219281
LeftArm 0.049724 2.314635 -7.722496
LeftForeArm 13.601504 -0.000000 -2.886734
LeftHand -10.763931 -0.000000 -5.517509
LeftHandThumb1 -26.253704 0.000000 33.147579
RightShoulder -13.182312 0.542286 -13.169581
RightArm 4.130950 37.951745 10.769876
RightForeArm -38.422588 0.000000 4.901837
RightHand -6.836363 -0.000000 9.868083
RightHandThumb1 -24.326973 -0.000000 -32.862282
LeftUpLeg -0.800187 11.372724 1.014136
LeftLeg -6.716358 -0.000000 0.000000
LeftFoot -20.110582 29.686042 -11.359548
LeftToeBase 27.121683 -0.000000 -0.000000
RightUpLeg -1.609717 -7.941674 1.232562
RightLeg -3.607391 -0.000000 0.000000
RightFoot -20.721552 -27.257146 13.549488
RightToeBase 24.098708 -0.000000 -0.000000
2
root 18.503821 35.482567 -21.937180 -171.246725 -2.292327 -178.776909
Spine -18.245437 -1.029895 1.121642
Head 6.922891 -1.470837 1.814275
LeftShoulder -14.290791 -36.355166 25.205033
LeftArm 0.044198 2.308543 -7.738919
LeftForeArm 13.573510 -0.000000 -2.875602
LeftHand -10.769770 -0.000000 -5.457526
LeftHandThumb1 -26.253704 0.000000 33.147579
RightShoulder -13.174425 0.532113 -13.164337
RightArm 4.162618 37.974932 10.798898
RightForeArm -38.380778 -0.000000 4.876023
RightHand -6.762095 -0.000000 9.936584
RightHandThumb1 -24.326973 -0.000000 -32.862282
LeftUpLeg -0.803846 11.371342 1.018087
LeftLeg -6.711029 -0.000000 0.000000
LeftFoot -20.097417 29.685633 -11.344359
LeftToeBase 27.109804 -0.000000 -0.000000
RightUpLeg -1.609677 -7.940710 1.236698
RightLeg -3.608393 -0.000000 0.000000
RightFoot -20.709514 -27.263571 13.566081
RightToeBase 23.998064 -0.000000 -0.000000
3
root 18.504049 35.482928 -21.932805 -171.260089 -2.297019 -178.772137
Spine -18.225241 -0.943043 1.101405
Head 6.929670 -1.558799 1.820019
LeftShoulder -14.165649 -36.394916 25.127537
LeftArm 0.045953 2.325465 -7.758473
LeftForeArm 13.555804 -0.000000 -2.883925
LeftHand -10.757317 -0.000000 -5.463944
LeftHandThumb1 -26.253704 0.000000 33.147579
RightShoulder -13.240697 0.494677 -13.157095
RightArm 4.187190 37.997156 10.809953
RightForeArm -38.382994 -0.000000 4.850067
RightHand -6.763577 -0.000000 9.926516
RightHandThumb1 -24.326973 -0.000000 -32.862282
LeftUpLeg -0.801518 11.365063 1.024257
LeftLeg -6.705658 -0.000000 0.000000
LeftFoot -20.097607 29.694519 -11.341351
LeftToeBase 27.148329 -0.000000 -0.000000
RightUpLeg -1.607544 -7.953167 1.241171
RightLeg -3.598791 -0.000000 0.000000
RightFoot -20.707360 -27.251494 13.549641
RightToeBase 24.064618 -0.000000 -0.000000
4
root 18.505274 35.483353 -21.928130 -171.270070 -2.302004 -178.773544
Spine -18.207994 -0.931426 1.091980
Head 6.942587 -1.573213 1.824894
LeftShoulder -14.146124 -36.380562 25.114032
LeftArm 0.071332 2.318604 -7.793995
LeftForeArm 13.555619 -0.000000 -2.889481
LeftHand -10.764922 -0.000000 -5.442021
LeftHandThumb1 -26.253704 0.000000 33.147579
RightShoulder -13.231526 0.499920 -13.168745
RightArm 4.189515 37.996891 10.843004
RightForeArm -38.414709 0.000000 4.857735
RightHand -6.765814 -0.000000 9.860220
RightHandThumb1 -24.326973 -0.000000 -32.862282
LeftUpLeg -0.801745 11.366067 1.024033
LeftLeg -6.702299 -0.000000 0.000000
LeftFoot -20.091643 29.687625 -11.345247
LeftToeBase 27.122695 -0.000000 -0.000000
RightUpLeg -1.599845 -7.963356 1.242240
RightLeg -3.606975 -0.000000 0.000000
RightFoot -20.690022 -27.244973 13.555355
RightToeBase 24.017698 -0.000000 -0.000000
5
root 18.506486 35.483912 -21.923356 -171.277396 -2.311553 -178.773455
Spine -18.197446 -0.924367 1.086494
Head 6.955536 -1.586462 1.832355
LeftShoulder -14.117129 -36.398491 25.093677
LeftArm 0.085480 2.352351 -7.813463
LeftForeArm 13.576203 0.000000 -2.887660
LeftHand -10.755618 -0.000000 -5.487754
LeftHandThumb1 -26.253704 0.000000 33.147579
RightShoulder -13.215554 0.495389 -13.163924
RightArm 4.202720 38.003620 10.852533
RightForeArm -38.431016 -0.000000 4.828485
RightHand -6.720847 -0.000000 9.835982
RightHandThumb1 -24.326973 -0.000000 -32.862282
LeftUpLeg -0.809996 11.353982 1.027700
LeftLeg -6.689596 -0.000000 0.000000
LeftFoot -20.078153 29.693503 -11.328044
LeftToeBase 27.110708 -0.000000 -0.000000
RightUpLeg -1.599969 -7.972678 1.244418
RightLeg -3.605304 -0.000000 0.000000
RightFoot -20.690022 -27.251246 13.520233
RightToeBase 24.090031 -0.000000 -0.000000
6
root 18.507452 35.484258 -21.918291 -171.285994 -2.324365 -178.773700
Spine -18.179118 -0.921040 1.084865
Head 6.953659 -1.600396 1.827325
LeftShoulder -14.087129 -36.405465 25.067869
LeftArm 0.095129 2.337662 -7.831801
LeftForeArm 13.599823 -0.000000 -2.887625
LeftHand -10.733173 -0.000000 -5.463673
LeftHandThumb1 -26.253704 0.000000 33.147579
RightShoulder -13.205356 0.502843 -13.161918
RightArm 4.214106 37.972147 10.856027
RightForeArm -38.397281 -0.000000 4.815929
RightHand -6.662232 -0.000000 9.847450
RightHandThumb1 -24.326973 -0.000000 -32.862282
LeftUpLeg -0.813708 11.343268 1.029696
LeftLeg -6.687508 -0.000000 0.000000
LeftFoot -20.076302 29.695846 -11.327407
LeftToeBase 27.162512 -0.000000 -0.000000
RightUpLeg -1.602921 -7.991706 1.247652
RightLeg -3.597702 -0.000000 0.000000
RightFoot -20.686421 -27.247044 13.521943
RightToeBase 24.068781 -0.000000 -0.000000
7
root 18.508695 35.484782 -21.913465 -171.288539 -2.321294 -178.772014
Spine -18.175179 -0.904767 1.078924
Head 6.962346 -1.625409 1.828576
LeftShoulder -14.046914 -36.465487 25.061738
LeftArm 0.036345 2.337432 -7.842970
LeftForeArm 13.636910 -0.000000 -2.809356
LeftHand -10.737918 0.000000 -5.436786
LeftHandThumb1 -26.253704 0.000000 33.147579
RightShoulder -13.190145 0.493414 -13.150653
RightArm 4.244995 37.996416 10.871276
RightForeArm -38.413306 -0.000000 4.790051
RightHand -6.640064 -0.000000 9.828599
RightHandThumb1 -24.326973 -0.000000 -32.862282
LeftUpLeg -0.821559 11.360821 1.031377
LeftLeg -6.686861 -0.000000 0.000000
LeftFoot -20.068297 29.696764 -11.328771
LeftToeBase 26.937437 -0.000000 -0.000000
RightUpLeg -1.606387 -7.983555 1.250556
RightLeg -3.602212 -0.000000 0.000000
RightFoot -20.678411 -27.249019 13.522073
RightToeBase 24.079549 -0.000000 -0.000000
8
root 18.509869 35.485305 -21.908647 -171.296077 -2.321735 -178.772303
Spine -18.161930 -0.894706 1.077824
Head 6.973401 -1.627742 1.815981
LeftShoulder -14.006158 -36.484797 25.009309
LeftArm 0.059950 2.338289 -7.824944
LeftForeArm 13.636904 -0.000000 -2.839477
LeftHand -10.705718 -0.000000 -5.334304
LeftHandThumb1 -26.253704 0.000000 33.147579
RightShoulder -13.174845 0.512577 -13.157752
RightArm 4.258877 37.990505 10.893935
RightForeArm -38.393231 -0.000000 4.816406
RightHand -6.785437 0.000000 9.847355
RightHandThumb1 -24.326973 -0.000000 -32.862282
LeftUpLeg -0.825014 11.361461 1.031877
LeftLeg -6.675784 -0.000000 0.000000
LeftFoot -20.061636 29.680896 -11.320844
LeftToeBase 27.106072 -0.000000 -0.000000
RightUpLeg -1.608418 -7.986381 1.251994
RightLeg -3.597945 -0.000000 0.000000
RightFoot -20.674177 -27.241875 13.524639
RightToeBase 24.025987 -0.000000 -0.000000
9
root 18.509898 35.485586 -21.904726 -171.306735 -2.314999 -178.776587
Spine -18.146484 -0.873222 1.069532
Head 6.967745 -1.657800 1.800906
LeftShoulder -13.971178 -36.485668 24.982847
LeftArm 0.058782 2.336477 -7.840130
LeftForeArm 13.648310 -0.000000 -2.822469
LeftHand -10.698820 -0.000000 -5.370392
LeftHandThumb1 -26.253704 0.000000 33.147579
RightShoulder -13.164869 0.497736 -13.152870
RightArm 4.279759 38.023983 10.909127
RightForeArm -38.353837 -0.000000 4.824437
RightHand -6.813352 -0.000000 9.869631
RightHandThumb1 -24.326973 -0.000000 -32.862282
LeftUpLeg -0.824404 11.367062 1.027809
LeftLeg -6.667594 -0.000000 0.000000
LeftFoot -20.065381 29.675512 -11.327871
LeftToeBase 27.162859 -0.000000 -0.000000
RightUpLeg -1.610462 -7.995095 1.246288
RightLeg -3.587223 -0.000000 0.000000
RightFoot -20.673210 -27.222975 13.532786
RightToeBase 24.008809 -0.000000 -0.000000
